<svg xmlns="http://www.w3.org/2000/svg" width="460" height="480" viewBox="0 0 460 480" fill="none">
  <path d="M90.27 80.3737L302.277 81.5395C316.748 81.4318 330.938 85.544 343.124 93.3769L347.122 86.6511L348.395 84.4091L365.033 94.4531L364.073 96.0673L358.221 105.977C359.405 107.143 360.455 108.331 361.594 109.541C364.527 112.258 367.224 115.221 369.656 118.397L380.644 112.209L381.716 111.604L391.185 128.553L390.47 128.957L379.148 135.324C381.168 140.563 382.547 146.028 383.257 151.6L396.523 151.78H397.081V159.2C397.081 159.851 397.081 160.501 397.081 161.151C397.081 162.272 397.081 163.393 397.081 164.491V171.217H396.567L383.167 171.06C382.332 176.609 380.832 182.037 378.701 187.225L390.001 193.951L390.582 194.287L380.51 211.034L379.661 210.518L368.606 203.838C367.892 204.712 367.155 205.564 366.373 206.416C363.642 210.136 360.61 213.623 357.306 216.841L362.599 226.324L363.358 227.669L346.474 237.175L345.447 235.337L341.985 229.127C329.788 236.7 315.679 240.592 301.339 240.336L230.588 239.35L367.244 479.507L458.251 480L361.638 308.133C366.105 306.362 370.393 304.366 374.592 302.191C397.493 290.192 417.063 272.665 431.541 251.187C433.908 247.869 436.141 244.499 438.241 241.076C452.73 216.99 460.262 189.332 459.993 161.196C460.239 117.612 444.963 80.4858 414.21 48.695C383.458 17.4872 346.072 1.77114 302.657 1.6142L22.4447 0" fill="#11304D"/>
  <path d="M148.559 296.968L219.042 297.416L186.682 239.843L108.114 239.395L148.559 296.968Z" fill="#25A9E0"/>
  <path d="M101.481 367.454L259.063 368.374L226.568 310.801L56.6589 309.881" fill="#25A9E0"/>
  <path d="M84.4411 477.915L321.283 479.305L266.589 382.005L0 380.548" fill="#25A9E0"/>
</svg>