<svg aria-hidden="true" style="position: absolute; width: 0; height: 0; overflow: hidden;" version="1.1" xmlns="http://www.w3.org/2000/svg" xmlns:xlink="http://www.w3.org/1999/xlink">
<defs>
<symbol id="CaretDown" viewBox="0 0 32 32">
<path d="M26.53 12.53l-10 10c-0.141 0.14-0.331 0.219-0.53 0.219s-0.389-0.079-0.53-0.219l-10-10c-0.132-0.142-0.205-0.33-0.201-0.525s0.082-0.38 0.22-0.517c0.137-0.137 0.323-0.216 0.517-0.22s0.382 0.069 0.525 0.201l9.47 9.469 9.47-9.469c0.142-0.133 0.33-0.205 0.524-0.201s0.38 0.082 0.517 0.22c0.137 0.137 0.216 0.323 0.22 0.517s-0.069 0.382-0.201 0.525z"></path>
</symbol>
<symbol id="caret-left" viewBox="0 0 32 32">
<path d="M20.53 25.47c0.074 0.069 0.133 0.151 0.174 0.243s0.063 0.191 0.065 0.292c0.002 0.101-0.017 0.201-0.054 0.294s-0.094 0.178-0.165 0.249c-0.071 0.071-0.156 0.127-0.25 0.165s-0.193 0.056-0.294 0.055c-0.101-0.002-0.2-0.024-0.292-0.065s-0.175-0.1-0.244-0.174l-10-10c-0.14-0.141-0.219-0.331-0.219-0.53s0.079-0.389 0.219-0.53l10-10c0.142-0.132 0.33-0.205 0.525-0.201s0.38 0.082 0.517 0.22c0.137 0.137 0.216 0.323 0.22 0.517s-0.069 0.382-0.201 0.525l-9.469 9.47 9.469 9.47z"></path>
</symbol>
<symbol id="caret-right" viewBox="0 0 32 32">
<path d="M22.53 16.53l-10 10c-0.142 0.133-0.33 0.205-0.525 0.201s-0.38-0.082-0.517-0.22c-0.137-0.137-0.216-0.323-0.22-0.517s0.069-0.382 0.201-0.524l9.469-9.47-9.469-9.47c-0.133-0.142-0.205-0.33-0.201-0.525s0.082-0.38 0.22-0.517c0.137-0.137 0.323-0.216 0.517-0.22s0.382 0.069 0.525 0.201l10 10c0.14 0.141 0.219 0.331 0.219 0.53s-0.079 0.389-0.219 0.53z"></path>
</symbol>
<symbol id="CaretUp" viewBox="0 0 32 32">
<path d="M26.53 20.53c-0.141 0.14-0.331 0.219-0.53 0.219s-0.389-0.079-0.53-0.219l-9.47-9.469-9.47 9.469c-0.142 0.132-0.33 0.205-0.525 0.201s-0.38-0.082-0.517-0.22-0.216-0.323-0.22-0.517c-0.003-0.194 0.069-0.382 0.201-0.525l10-10c0.141-0.14 0.331-0.219 0.53-0.219s0.389 0.079 0.53 0.219l10 10c0.14 0.141 0.219 0.331 0.219 0.53s-0.079 0.389-0.219 0.53z"></path>
</symbol>
<symbol id="castom-1" viewBox="0 0 32 32">
<path d="M9.118 6.046c0.913 0.476 2.037 0.128 2.523-0.776 0.753-0.028 1.942-0.066 2.343-0.059 0.458 0.008 0.746 0.293 0.833 0.434l0.854 1.504-7.297-0.046-0.868 1.667c2.445-0.010 7.527-0.027 8.291-0.014s1.128 0.299 1.215 0.441l0.118 0.215c0.383 0.697 1.123 1.121 1.917 1.1l0.464-0.012c-1.050-1.928-3.225-5.9-3.523-6.363s-0.882-0.588-1.136-0.592l-3.157 0.054c-0.168-0.367-0.455-0.683-0.841-0.885-0.92-0.48-2.055-0.122-2.535 0.798s-0.122 2.055 0.798 2.535zM9.434 5.44c-0.586-0.305-0.813-1.027-0.508-1.613s1.027-0.813 1.613-0.508c0.586 0.305 0.813 1.027 0.508 1.613s-1.027 0.813-1.613 0.508z"></path>
<path d="M13.059 10.548l0.239-0.399c-2.19-0.149-6.709-0.447-7.26-0.444s-0.969 0.428-1.11 0.641l-1.65 2.692c-0.4-0.056-0.821 0.017-1.198 0.234-0.899 0.519-1.207 1.668-0.688 2.567s1.668 1.207 2.567 0.688c0.892-0.515 1.202-1.65 0.7-2.546 0.381-0.65 0.987-1.674 1.208-2.008 0.253-0.383 0.648-0.473 0.814-0.47l1.727 0.088-3.957 6.131 0.94 1.628c1.305-2.068 4.019-6.365 4.44-7.002s0.858-0.791 1.024-0.789l0.245 0.016c0.793 0.051 1.549-0.345 1.957-1.027zM3.618 15.935c-0.572 0.33-1.303 0.134-1.634-0.438s-0.134-1.303 0.438-1.634c0.572-0.33 1.303-0.134 1.634 0.438s0.134 1.303-0.438 1.634z"></path>
<path d="M9.731 15.425c-1.224 1.822-3.742 5.587-4.015 6.065s-0.114 1.054 0 1.281l1.507 2.775c-0.248 0.319-0.396 0.719-0.396 1.154 0 1.038 0.841 1.879 1.879 1.879s1.879-0.841 1.879-1.879c0-1.030-0.828-1.866-1.854-1.879-0.372-0.655-0.956-1.692-1.135-2.050-0.205-0.41-0.085-0.797 0-0.94l0.94-1.452 3.332 6.492h1.879c-1.139-2.164-3.502-6.663-3.844-7.346s-0.256-1.139-0.171-1.281l0.136-0.204c0.441-0.661 0.475-1.514 0.089-2.209l-0.226-0.406zM9.902 26.701c0 0.66-0.535 1.196-1.196 1.196s-1.196-0.535-1.196-1.196c0-0.66 0.535-1.196 1.196-1.196s1.196 0.535 1.196 1.196z"></path>
<path d="M22.102 15.709l0.239 0.398c1.162-1.863 3.549-5.711 3.806-6.198s0.078-1.057-0.044-1.281l-1.6-2.722c0.237-0.327 0.371-0.732 0.357-1.167-0.035-1.037-0.905-1.85-1.942-1.814s-1.85 0.905-1.814 1.942c0.035 1.029 0.891 1.837 1.917 1.815 0.395 0.642 1.013 1.658 1.204 2.010 0.219 0.403 0.113 0.794 0.032 0.939l-0.89 1.483-3.55-6.375-1.878 0.064c1.212 2.124 3.727 6.54 4.092 7.211s0.295 1.13 0.214 1.275l-0.129 0.209c-0.418 0.676-0.424 1.529-0.014 2.21zM21.787 4.844c-0.023-0.66 0.494-1.213 1.154-1.236s1.213 0.494 1.236 1.155c0.022 0.66-0.494 1.213-1.155 1.236s-1.213-0.494-1.236-1.155z"></path>
<path d="M19.058 21.294l-0.229 0.405c2.194 0.092 6.718 0.272 7.269 0.256s0.958-0.453 1.093-0.669l1.58-2.734c0.401 0.045 0.82-0.038 1.191-0.265 0.885-0.542 1.163-1.699 0.621-2.584s-1.699-1.163-2.584-0.621c-0.878 0.538-1.159 1.68-0.634 2.563-0.364 0.66-0.943 1.699-1.155 2.039-0.243 0.389-0.635 0.489-0.801 0.491l-1.729-0.043 3.796-6.232-0.982-1.602c-1.25 2.102-3.852 6.467-4.256 7.115s-0.837 0.814-1.003 0.815l-0.245-0.009c-0.794-0.030-1.539 0.385-1.93 1.077zM28.355 15.663c0.563-0.345 1.3-0.168 1.645 0.395s0.168 1.3-0.395 1.645-1.3 0.168-1.645-0.395c-0.345-0.563-0.168-1.3 0.395-1.645z"></path>
<path d="M13.102 21.217l-0.465-0.002c0.992 1.959 3.045 5.995 3.329 6.467s0.864 0.614 1.118 0.626l3.157 0.042c0.157 0.372 0.434 0.697 0.813 0.91 0.905 0.507 2.051 0.184 2.558-0.721s0.184-2.051-0.721-2.558c-0.898-0.503-2.032-0.19-2.546 0.699-0.753 0.005-1.943 0.007-2.343-0.012-0.458-0.021-0.737-0.315-0.82-0.459l-0.808-1.529 7.292 0.266 0.919-1.64c-2.445-0.064-7.525-0.201-8.288-0.237s-1.119-0.333-1.201-0.477l-0.112-0.219c-0.361-0.708-1.088-1.154-1.883-1.157zM22.558 26.577c0.576 0.323 0.782 1.052 0.459 1.628s-1.052 0.782-1.628 0.459c-0.576-0.323-0.782-1.052-0.459-1.628s1.052-0.782 1.628-0.459z"></path>
</symbol>
<symbol id="castom-2" viewBox="0 0 32 32">
<path d="M15.712 2.15c0.26-0.199 0.622-0.199 0.882 0 2.402 1.844 4.192 2.651 5.546 2.98 1.174 0.285 2.089 0.236 2.978 0.187l0.002-0c0.151-0.008 0.303-0.017 0.455-0.023 0.517-0.022 0.966 0.093 1.33 0.344 0.36 0.248 0.582 0.592 0.714 0.938 0.246 0.645 0.211 1.377 0.117 1.862-0.117 1.952-0.392 6.573-0.575 9.807-0.198 3.494-2.342 5.913-3.436 6.717l-0.009 0.006-7.154 4.907c-0.246 0.169-0.571 0.169-0.817 0l-7.162-4.913c-1.094-0.805-3.238-3.224-3.437-6.717-0.184-3.234-0.458-7.855-0.575-9.807-0.093-0.485-0.129-1.217 0.118-1.862 0.132-0.345 0.354-0.689 0.714-0.938 0.363-0.251 0.813-0.366 1.33-0.344 0.151 0.006 0.304 0.015 0.455 0.023l0.002 0c0.889 0.049 1.804 0.098 2.978-0.187 1.353-0.328 3.143-1.135 5.546-2.98zM16.153 3.338c-2.351 1.761-4.201 2.606-5.7 2.97-1.355 0.329-2.422 0.27-3.319 0.22l-0.013-0.001c-0.153-0.008-0.298-0.017-0.441-0.023-0.302-0.013-0.48 0.055-0.589 0.13-0.112 0.077-0.203 0.198-0.27 0.372-0.141 0.368-0.128 0.869-0.054 1.229l0.009 0.043 0.002 0.039 0.058-0.003 0 0.002-0.058 0.003 0 0.002c0.116 1.928 0.393 6.593 0.578 9.852 0.172 3.037 2.053 5.149 2.936 5.803l6.859 4.705 6.86-4.705c0.884-0.654 2.764-2.765 2.936-5.803 0.185-3.259 0.462-7.925 0.578-9.852l0.003-0.043 0.008-0.039-0.057-0.012 0-0.002 0.057 0.012 0-0.002c0.074-0.36 0.087-0.861-0.054-1.229-0.066-0.174-0.157-0.294-0.27-0.372-0.109-0.075-0.287-0.143-0.589-0.13-0.143 0.006-0.288 0.014-0.441 0.023l-0.002 0-0.011 0.001c-0.897 0.050-1.964 0.109-3.319-0.22-1.5-0.364-3.349-1.21-5.7-2.97z"></path>
<path d="M16.261 27.061c-0.039 0.027-0.091 0.027-0.131 0l-5.904-4.050c-0.817-0.601-2.487-2.477-2.641-5.184-0.153-2.697-0.383-6.558-0.478-8.154-0.072-0.349-0.096-0.87 0.067-1.298 0.082-0.215 0.212-0.407 0.407-0.542s0.455-0.211 0.794-0.196c0.122 0.005 0.246 0.012 0.372 0.019 0.74 0.041 1.562 0.087 2.611-0.168 1.204-0.292 2.745-0.997 4.766-2.547 0.042-0.032 0.101-0.032 0.142 0 2.020 1.549 3.561 2.255 4.766 2.547 1.049 0.255 1.871 0.209 2.611 0.168 0.126-0.007 0.25-0.014 0.372-0.019 0.339-0.015 0.599 0.061 0.794 0.196s0.325 0.327 0.407 0.542c0.163 0.428 0.139 0.949 0.067 1.298-0.096 1.596-0.325 5.457-0.478 8.154-0.154 2.707-1.824 4.583-2.641 5.184l-5.904 4.049zM18.903 14.636c0.214-0.258 0.178-0.641-0.081-0.854s-0.641-0.178-0.854 0.081l-2.493 3.012-1.118-1.118c-0.237-0.237-0.621-0.237-0.858 0s-0.237 0.621 0 0.858l1.589 1.589c0.121 0.121 0.287 0.185 0.458 0.177s0.33-0.088 0.439-0.219l2.918-3.525z"></path>
</symbol>
<symbol id="castom-3" viewBox="0 0 32 32">
<path d="M22 28.941h-11.824c1.431-1.49 4.329-6.365 4.471-13.941l0.118-6.882h-3.176l4.412-4.118 4.353 4.118h-3.118l0.118 6.882c0.039 3.275 1.023 10.647 4.647 13.941z"></path>
<path d="M2 28.941c1.882-0.667 5.6-4.247 5.412-13.235h-2.824l4.176-3.941 4.235 3.941h-2.824c0.255 3.667-1.023 11.447-8.176 13.235z"></path>
<path d="M30 28.941c-1.882-0.667-5.6-4.247-5.412-13.235h2.823l-4.176-3.941-4.235 3.941h2.823c-0.255 3.667 1.023 11.447 8.177 13.235z"></path>
</symbol>
<symbol id="castom-4" viewBox="0 0 32 32">
<path d="M12.949 18.154h-3.051c-0.144 4.308 2.932 5.624 4.487 5.744v2.333h3.231v-2.333c3.769-0.18 5.026-3.051 5.026-4.846s-1.256-3.231-2.513-3.949c-1.256-0.718-5.564-1.615-6.282-1.974s-0.897-2.872 2.154-2.692c2.441 0.144 2.812 1.735 2.692 2.513h3.231c0.144-3.303-2.812-4.607-4.308-4.846v-2.333h-3.231v2.333c-4.128 1.256-3.949 4.128-3.769 5.744s3.051 2.872 5.923 3.231c2.297 0.287 2.752 1.436 2.692 1.974-0.12 0.718-0.933 2.154-3.231 2.154s-2.992-2.034-3.051-3.051z"></path>
<path d="M16 28.564c-6.939 0-12.564-5.625-12.564-12.564s5.625-12.564 12.564-12.564c6.939 0 12.564 5.625 12.564 12.564s-5.625 12.564-12.564 12.564zM16 30c7.732 0 14-6.268 14-14s-6.268-14-14-14c-7.732 0-14 6.268-14 14s6.268 14 14 14z"></path>
<path d="M13.742 5.468c-4.863 1.038-8.511 5.359-8.511 10.532 0 5.049 3.475 9.287 8.164 10.452l-0.173 0.697c-5.001-1.243-8.708-5.762-8.708-11.149 0-5.519 3.891-10.127 9.079-11.234l0.15 0.702zM26.769 16c0-5.111-3.561-9.391-8.337-10.494l0.162-0.7c5.095 1.176 8.894 5.74 8.894 11.193 0 5.386-3.707 9.906-8.708 11.149l-0.173-0.697c4.689-1.165 8.163-5.403 8.163-10.452z"></path>
</symbol>
<symbol id="castom-5" viewBox="0 0 32 32">
<path d="M14.947 10.8l6.143 0.037-2.82-4.8-6.847-0.037 3.525 4.8z"></path>
<path d="M10.845 16.675l13.733 0.077-2.832-4.8-14.808-0.077z"></path>
<path d="M9.359 25.884l20.641 0.116-4.767-8.111-23.233-0.122z"></path>
</symbol>
<symbol id="nine-dots" viewBox="0 0 32 32">
<path d="M9 7.5c0 0.297-0.088 0.587-0.253 0.833s-0.399 0.439-0.673 0.552c-0.274 0.114-0.576 0.143-0.867 0.085s-0.558-0.201-0.768-0.411c-0.21-0.21-0.353-0.477-0.411-0.768s-0.028-0.593 0.085-0.867c0.114-0.274 0.306-0.508 0.552-0.673s0.537-0.253 0.833-0.253c0.398 0 0.779 0.158 1.061 0.439s0.439 0.663 0.439 1.061zM16 6c-0.297 0-0.587 0.088-0.833 0.253s-0.439 0.399-0.552 0.673-0.143 0.576-0.085 0.867c0.058 0.291 0.201 0.558 0.411 0.768s0.477 0.353 0.768 0.411c0.291 0.058 0.592 0.028 0.867-0.085s0.508-0.306 0.673-0.552c0.165-0.247 0.253-0.537 0.253-0.833 0-0.398-0.158-0.779-0.439-1.061s-0.663-0.439-1.061-0.439zM24.5 9c0.297 0 0.587-0.088 0.833-0.253s0.439-0.399 0.552-0.673 0.143-0.576 0.085-0.867c-0.058-0.291-0.201-0.558-0.41-0.768s-0.477-0.353-0.768-0.411c-0.291-0.058-0.593-0.028-0.867 0.085s-0.508 0.306-0.673 0.552c-0.165 0.247-0.253 0.537-0.253 0.833 0 0.398 0.158 0.779 0.439 1.061s0.663 0.439 1.061 0.439zM7.5 14.5c-0.297 0-0.587 0.088-0.833 0.253s-0.439 0.399-0.552 0.673c-0.114 0.274-0.143 0.576-0.085 0.867s0.201 0.558 0.411 0.768c0.21 0.21 0.477 0.353 0.768 0.41s0.593 0.028 0.867-0.085c0.274-0.113 0.508-0.306 0.673-0.552s0.253-0.537 0.253-0.833c0-0.398-0.158-0.779-0.439-1.061s-0.663-0.439-1.061-0.439zM16 14.5c-0.297 0-0.587 0.088-0.833 0.253s-0.439 0.399-0.552 0.673-0.143 0.576-0.085 0.867c0.058 0.291 0.201 0.558 0.411 0.768s0.477 0.353 0.768 0.41c0.291 0.058 0.592 0.028 0.867-0.085s0.508-0.306 0.673-0.552c0.165-0.247 0.253-0.537 0.253-0.833 0-0.398-0.158-0.779-0.439-1.061s-0.663-0.439-1.061-0.439zM24.5 14.5c-0.297 0-0.587 0.088-0.833 0.253s-0.439 0.399-0.552 0.673-0.143 0.576-0.085 0.867c0.058 0.291 0.201 0.558 0.41 0.768s0.477 0.353 0.768 0.41c0.291 0.058 0.593 0.028 0.867-0.085s0.508-0.306 0.673-0.552c0.165-0.247 0.253-0.537 0.253-0.833 0-0.398-0.158-0.779-0.439-1.061s-0.663-0.439-1.061-0.439zM7.5 23c-0.297 0-0.587 0.088-0.833 0.253s-0.439 0.399-0.552 0.673c-0.114 0.274-0.143 0.576-0.085 0.867s0.201 0.558 0.411 0.768c0.21 0.21 0.477 0.353 0.768 0.41s0.593 0.028 0.867-0.085c0.274-0.113 0.508-0.306 0.673-0.552s0.253-0.537 0.253-0.833c0-0.398-0.158-0.779-0.439-1.061s-0.663-0.439-1.061-0.439zM16 23c-0.297 0-0.587 0.088-0.833 0.253s-0.439 0.399-0.552 0.673-0.143 0.576-0.085 0.867c0.058 0.291 0.201 0.558 0.411 0.768s0.477 0.353 0.768 0.41c0.291 0.058 0.592 0.028 0.867-0.085s0.508-0.306 0.673-0.552c0.165-0.247 0.253-0.537 0.253-0.833 0-0.398-0.158-0.779-0.439-1.061s-0.663-0.439-1.061-0.439zM24.5 23c-0.297 0-0.587 0.088-0.833 0.253s-0.439 0.399-0.552 0.673-0.143 0.576-0.085 0.867c0.058 0.291 0.201 0.558 0.41 0.768s0.477 0.353 0.768 0.41c0.291 0.058 0.593 0.028 0.867-0.085s0.508-0.306 0.673-0.552c0.165-0.247 0.253-0.537 0.253-0.833 0-0.398-0.158-0.779-0.439-1.061s-0.663-0.439-1.061-0.439z"></path>
</symbol>
<symbol id="facebook" viewBox="0 0 33 32">
<path d="M22.077 8h-4c-0.736 0-1.333 0.597-1.333 1.333v4h5.333c0.152-0.003 0.296 0.067 0.386 0.189s0.116 0.28 0.068 0.424l-0.987 2.933c-0.091 0.269-0.343 0.451-0.627 0.453h-4.173v10c0 0.368-0.299 0.667-0.667 0.667h-3.333c-0.368 0-0.667-0.299-0.667-0.667v-10h-2c-0.368 0-0.667-0.299-0.667-0.667v-2.667c0-0.368 0.298-0.667 0.667-0.667h2v-4c0-2.946 2.388-5.333 5.333-5.333h4.667c0.368 0 0.667 0.298 0.667 0.667v2.667c0 0.368-0.299 0.667-0.667 0.667z"></path>
</symbol>
<symbol id="instagram" viewBox="0 0 33 32">
<path d="M21.41 4h-10.667c-3.682 0-6.667 2.985-6.667 6.667v10.667c0 3.682 2.985 6.667 6.667 6.667h10.667c3.682 0 6.667-2.985 6.667-6.667v-10.667c0-3.682-2.985-6.667-6.667-6.667zM25.744 21.333c-0.007 2.39-1.943 4.326-4.333 4.333h-10.667c-2.39-0.007-4.326-1.943-4.333-4.333v-10.667c0.007-2.39 1.943-4.326 4.333-4.333h10.667c2.39 0.007 4.326 1.943 4.333 4.333v10.667zM22.41 11c0.736 0 1.333-0.597 1.333-1.333s-0.597-1.333-1.333-1.333-1.333 0.597-1.333 1.333c0 0.736 0.597 1.333 1.333 1.333zM16.077 10c-3.314 0-6 2.686-6 6s2.686 6 6 6c3.314 0 6-2.686 6-6 0.004-1.592-0.628-3.121-1.753-4.247s-2.654-1.757-4.247-1.753zM12.41 16c0 2.025 1.642 3.667 3.667 3.667s3.667-1.642 3.667-3.667c0-2.025-1.642-3.667-3.667-3.667s-3.667 1.642-3.667 3.667z"></path>
</symbol> 
<symbol id="linkedin" viewBox="0 0 32 32">
<path d="M3.556 0h24.889c1.964 0 3.556 1.592 3.556 3.556v24.889c0 1.964-1.592 3.556-3.556 3.556h-24.889c-1.964 0-3.556-1.592-3.556-3.556v-24.889c0-1.964 1.592-3.556 3.556-3.556zM8.889 26.667c0.491 0 0.889-0.398 0.889-0.889v-12.444c0-0.491-0.398-0.889-0.889-0.889h-2.667c-0.491 0-0.889 0.398-0.889 0.889v12.444c0 0.491 0.398 0.889 0.889 0.889h2.667zM7.556 10.667c-1.473 0-2.667-1.194-2.667-2.667s1.194-2.667 2.667-2.667c1.473 0 2.667 1.194 2.667 2.667s-1.194 2.667-2.667 2.667zM25.778 26.667c0.491 0 0.889-0.398 0.889-0.889v-8.178c0.058-2.825-2.031-5.236-4.836-5.582-1.961-0.179-3.861 0.737-4.942 2.382v-1.067c0-0.491-0.398-0.889-0.889-0.889h-2.667c-0.491 0-0.889 0.398-0.889 0.889v12.444c0 0.491 0.398 0.889 0.889 0.889h2.667c0.491 0 0.889-0.398 0.889-0.889v-6.667c0-1.473 1.194-2.667 2.667-2.667s2.667 1.194 2.667 2.667v6.667c0 0.491 0.398 0.889 0.889 0.889h2.667z"></path>
</symbol>
<symbol id="mail" viewBox="0 0 33 32">
<path d="M3.607 8.643c0.323-1.425 1.598-2.489 3.121-2.489h19.2c1.523 0 2.797 1.064 3.121 2.489l-12.721 7.774-12.721-7.774zM3.528 10.469v11.366l9.285-5.691-9.285-5.674zM14.346 17.080l-10.511 6.443c0.513 1.082 1.616 1.831 2.893 1.831h19.2c1.277 0 2.38-0.748 2.893-1.831l-10.511-6.443-1.982 1.211-1.982-1.211zM19.843 16.143l9.285 5.691v-11.366l-9.285 5.674z"></path>
</symbol>
<symbol id="phone" viewBox="0 0 32 32">
<path d="M25.188 20.023l-3.318-0.379c-0.797-0.091-1.581 0.183-2.142 0.745l-2.404 2.404c-3.697-1.881-6.728-4.899-8.609-8.609l2.417-2.417c0.562-0.562 0.836-1.345 0.745-2.142l-0.379-3.292c-0.157-1.319-1.267-2.312-2.6-2.312h-2.26c-1.476 0-2.704 1.228-2.613 2.704 0.692 11.156 9.615 20.065 20.758 20.758 1.476 0.091 2.704-1.137 2.704-2.613v-2.26c0.013-1.319-0.98-2.43-2.299-2.587z"></path>
</symbol>
<symbol id="twitter" viewBox="0 0 33 32">
<path d="M28.041 8.957c-0.619 0.826-1.368 1.547-2.217 2.134 0 0.216 0 0.432 0 0.659 0.007 3.918-1.558 7.676-4.345 10.43s-6.561 4.274-10.477 4.219c-2.264 0.008-4.499-0.509-6.53-1.51-0.11-0.048-0.18-0.156-0.18-0.276v-0.132c0-0.172 0.139-0.312 0.312-0.312 2.226-0.073 4.372-0.845 6.135-2.206-2.014-0.041-3.827-1.234-4.661-3.069-0.042-0.1-0.029-0.215 0.035-0.303s0.169-0.137 0.277-0.128c0.612 0.061 1.231 0.005 1.821-0.168-2.224-0.462-3.895-2.308-4.134-4.567-0.008-0.108 0.040-0.213 0.128-0.277s0.203-0.077 0.303-0.034c0.597 0.263 1.241 0.402 1.893 0.408-1.949-1.279-2.79-3.711-2.049-5.922 0.077-0.215 0.26-0.373 0.484-0.418s0.454 0.032 0.606 0.202c2.629 2.798 6.242 4.466 10.077 4.651-0.098-0.392-0.146-0.795-0.144-1.199 0.036-2.119 1.347-4.006 3.319-4.778s4.215-0.277 5.68 1.254c0.998-0.19 1.963-0.525 2.864-0.995 0.066-0.041 0.15-0.041 0.216 0 0.041 0.066 0.041 0.15 0 0.216-0.436 0.999-1.174 1.837-2.109 2.398 0.819-0.095 1.623-0.288 2.396-0.575 0.065-0.044 0.151-0.044 0.216 0 0.055 0.025 0.095 0.073 0.111 0.13s0.006 0.12-0.028 0.169z"></path>
</symbol>
<symbol id="WarningCircle" viewBox="0 0 32 32">
<path d="M16 2c-2.769 0-5.476 0.821-7.778 2.359s-4.097 3.725-5.156 6.283c-1.060 2.558-1.337 5.373-0.797 8.089s1.874 5.21 3.832 7.168 4.452 3.291 7.168 3.831c2.716 0.54 5.531 0.263 8.089-0.797s4.745-2.854 6.283-5.156c1.538-2.302 2.359-5.009 2.359-7.778-0.004-3.712-1.48-7.271-4.105-9.895s-6.183-4.101-9.895-4.105zM16 27.846c-2.343 0-4.633-0.695-6.581-1.996s-3.466-3.152-4.363-5.316c-0.897-2.165-1.131-4.546-0.674-6.844s1.585-4.409 3.242-6.065 3.767-2.785 6.065-3.242c2.298-0.457 4.68-0.223 6.844 0.674s4.015 2.415 5.316 4.363c1.302 1.948 1.997 4.238 1.997 6.581-0.004 3.141-1.253 6.152-3.474 8.373s-5.232 3.47-8.373 3.474zM14.923 17.077v-7.538c0-0.286 0.113-0.56 0.315-0.761s0.476-0.315 0.761-0.315c0.286 0 0.559 0.113 0.762 0.315s0.315 0.476 0.315 0.761v7.538c0 0.286-0.113 0.56-0.315 0.762s-0.476 0.315-0.762 0.315-0.559-0.113-0.761-0.315c-0.202-0.202-0.315-0.476-0.315-0.762zM17.615 21.923c0 0.32-0.095 0.632-0.272 0.897s-0.43 0.473-0.725 0.595-0.62 0.154-0.933 0.092c-0.313-0.062-0.601-0.216-0.827-0.442s-0.38-0.514-0.442-0.827c-0.062-0.313-0.030-0.638 0.092-0.933s0.329-0.547 0.595-0.725c0.266-0.177 0.578-0.272 0.897-0.272 0.428 0 0.839 0.17 1.142 0.473s0.473 0.714 0.473 1.142z"></path>
</symbol>
<symbol id="x" viewBox="0 0 32 32">
<path d="M25.707 24.292c0.093 0.093 0.167 0.203 0.217 0.325s0.076 0.252 0.076 0.383c0 0.131-0.026 0.262-0.076 0.383s-0.124 0.232-0.217 0.325c-0.093 0.093-0.203 0.167-0.325 0.217s-0.252 0.076-0.383 0.076c-0.131 0-0.262-0.026-0.383-0.076s-0.232-0.124-0.325-0.217l-8.293-8.294-8.292 8.294c-0.188 0.188-0.442 0.293-0.707 0.293s-0.52-0.105-0.707-0.293c-0.188-0.188-0.293-0.442-0.293-0.707s0.105-0.52 0.293-0.707l8.294-8.293-8.294-8.292c-0.188-0.188-0.293-0.442-0.293-0.707s0.105-0.52 0.293-0.707c0.188-0.188 0.442-0.293 0.707-0.293s0.52 0.105 0.707 0.293l8.292 8.294 8.293-8.294c0.188-0.188 0.442-0.293 0.707-0.293s0.52 0.105 0.707 0.293c0.188 0.188 0.293 0.442 0.293 0.707s-0.105 0.52-0.293 0.707l-8.294 8.292 8.294 8.293z"></path>
</symbol>
<symbol id="small-logo" viewBox="0 0 112 32">
<path fill="#11304d" style="fill: var(--color1, #11304d)" d="M6.595 5.226l11.729 0.064c0.8-0.006 1.586 0.221 2.26 0.652l0.221-0.37 0.070-0.123 0.92 0.553-0.053 0.089-0.324 0.546c0.065 0.064 0.124 0.13 0.187 0.196 0.162 0.15 0.312 0.313 0.446 0.488l0.667-0.374 0.524 0.933-0.040 0.022-0.627 0.351c0.112 0.288 0.188 0.589 0.227 0.896l0.765 0.010v0.409c0 0.036 0 0.072 0 0.107 0 0.062 0 0.123 0 0.184v0.37h-0.028l-0.741-0.009c-0.046 0.306-0.129 0.604-0.247 0.89l0.657 0.389-0.557 0.922-0.047-0.028-0.612-0.368c-0.040 0.048-0.080 0.095-0.124 0.142-0.151 0.205-0.319 0.397-0.502 0.574l0.293 0.522 0.042 0.074-0.934 0.523-0.057-0.101-0.192-0.342c-0.675 0.417-1.455 0.631-2.249 0.617l-3.914-0.054 7.56 13.224 5.035 0.027-5.345-9.463c0.247-0.098 0.484-0.207 0.717-0.327 1.267-0.661 2.35-1.626 3.151-2.808 0.131-0.183 0.254-0.368 0.371-0.557 0.802-1.326 1.218-2.849 1.204-4.398 0.014-2.4-0.832-4.444-2.533-6.195-1.701-1.718-3.77-2.584-6.172-2.592l-15.502-0.089z"></path>
<path fill="#25a9e0" style="fill: var(--color2, #25a9e0)" d="M9.819 17.152l3.899 0.025-1.79-3.17-4.347-0.025 2.238 3.17z"></path>
<path fill="#25a9e0" style="fill: var(--color2, #25a9e0)" d="M7.215 21.033l8.718 0.051-1.798-3.17-9.4-0.051z"></path>
<path fill="#25a9e0" style="fill: var(--color2, #25a9e0)" d="M6.272 27.115l13.103 0.076-3.026-5.358-14.749-0.080z"></path>
<path fill="#11304d" style="fill: var(--color1, #11304d)" d="M40.908 20.113c0.96-0.91 2.335-1.39 3.677-1.39 2.765 0 3.792 1.358 3.792 4.353v4.158h-2.483v-0.876h-0.054c-0.414 0.678-1.359 1.075-2.335 1.075-1.308 0-2.997-0.646-2.997-2.581 0-2.383 2.899-2.78 5.3-2.78v-0.132c0-0.811-0.646-1.191-1.491-1.191-0.778 0-1.539 0.38-2.037 0.843l-1.37-1.478zM45.894 23.638h-0.348c-1.192 0-2.534 0.149-2.534 1.126 0 0.628 0.63 0.843 1.176 0.843 1.093 0 1.706-0.662 1.706-1.688v-0.281z"></path>
<path fill="#11304d" style="fill: var(--color1, #11304d)" d="M55.647 27.461c-1.011 0-1.987-0.431-2.501-1.142h-0.033v4.881h-2.718v-12.211h2.586v1.009h0.049c0.314-0.395 0.715-0.711 1.172-0.925s0.957-0.32 1.461-0.309c2.402 0 3.909 2.018 3.909 4.321s-1.441 4.377-3.925 4.377zM55.001 20.974c-1.226 0-1.987 1.076-1.987 2.118 0 1.075 0.761 2.118 1.987 2.118 1.292 0 1.939-1.059 1.939-2.134s-0.646-2.102-1.939-2.102z"></path>
<path fill="#11304d" style="fill: var(--color1, #11304d)" d="M62.668 17.852c-0.292-0.012-0.574-0.111-0.811-0.282s-0.418-0.409-0.521-0.682c-0.103-0.273-0.124-0.571-0.059-0.856s0.212-0.545 0.423-0.747 0.477-0.338 0.765-0.39c0.288-0.052 0.584-0.019 0.853 0.096s0.498 0.306 0.66 0.55c0.161 0.244 0.247 0.529 0.247 0.822 0 0.839-0.696 1.49-1.557 1.49zM61.309 27.234v-8.245h2.718v8.245h-2.718z"></path>
<path fill="#11304d" style="fill: var(--color1, #11304d)" d="M72.422 27.234v-1.075h-0.033c-0.529 0.827-1.606 1.307-2.698 1.307-2.485 0-3.925-2.085-3.925-4.385s1.49-4.321 3.892-4.321c0.475-0.010 0.947 0.085 1.382 0.277s0.822 0.477 1.135 0.834h0.033v-5.153h2.718v12.515h-2.503zM70.335 20.979c-1.291 0-1.953 1.043-1.953 2.099s0.662 2.134 1.953 2.134c1.226 0 1.988-1.043 1.988-2.118 0-1.044-0.762-2.12-1.988-2.12v0.005z"></path>
<path fill="#11304d" style="fill: var(--color1, #11304d)" d="M80.023 21.024v3.143c0 0.762 0.247 1.159 1.027 1.159 0.271 0.002 0.54-0.043 0.796-0.133l0.032 1.986c-0.508 0.164-1.039 0.247-1.573 0.247-2.203 0-2.932-1.175-2.932-2.929v-3.472h-1.324v-2.036h1.308v-2.168h2.666v2.168h1.937v2.036h-1.937z"></path>
<path fill="#11304d" style="fill: var(--color1, #11304d)" d="M91.4 23.854h-5.978c0.083 0.91 0.988 1.555 1.977 1.555 0.865 0 1.457-0.37 1.821-0.864l1.888 1.191c-0.778 1.124-2.069 1.754-3.742 1.754-2.485 0-4.538-1.573-4.538-4.353 0-2.697 1.955-4.418 4.455-4.418 2.434 0 4.14 1.672 4.14 4.485-0.006 0.219-0.006 0.449-0.023 0.649zM88.916 22.165c0-0.864-0.547-1.572-1.624-1.572-1.043 0-1.805 0.728-1.871 1.572h3.494z"></path>
<path fill="#11304d" style="fill: var(--color1, #11304d)" d="M98.786 21.653c-0.298-0.397-0.895-0.662-1.441-0.662-1.143 0-1.905 0.975-1.905 2.117s0.741 2.099 1.939 2.099c0.546 0 1.142-0.215 1.474-0.617l1.506 1.837c-0.678 0.662-1.839 1.059-3.047 1.059-2.595 0-4.621-1.655-4.621-4.386 0-2.68 2.037-4.385 4.604-4.385 1.176 0 2.419 0.447 3.064 1.111l-1.573 1.827z"></path>
<path fill="#11304d" style="fill: var(--color1, #11304d)" d="M106.866 27.234v-4.472c0-0.927-0.231-1.737-1.208-1.737-0.944 0-1.474 0.778-1.474 1.753v4.456h-2.718v-12.515h2.718v5.308h0.033c0.371-0.662 1.226-1.274 2.369-1.274 2.235 0 3.013 1.721 3.013 3.376v5.104h-2.733z"></path>
<path fill="#11304d" style="fill: var(--color1, #11304d)" d="M33.175 17.797h1.49c0.845 0 1.888 0.215 1.888 1.307 0 1.191-1.143 1.422-2.053 1.422h-0.371v2.053l2.54 4.654h3.312l-3.064-5.013c1.507-0.464 2.435-1.589 2.435-3.161 0-2.68-2.236-3.54-4.489-3.54h-4.469v11.715h2.78v-3.333z"></path>
</symbol>

<symbol id="big-logo" viewBox="0 0 112 32">
<path fill="#11304d" style="fill: var(--color1, #11304d)" d="M6.595 5.226l11.729 0.064c0.8-0.006 1.586 0.221 2.26 0.652l0.221-0.37 0.070-0.123 0.92 0.553-0.053 0.089-0.324 0.546c0.065 0.064 0.124 0.13 0.187 0.196 0.162 0.15 0.311 0.313 0.446 0.488l0.667-0.374 0.524 0.933-0.040 0.022-0.626 0.351c0.112 0.288 0.188 0.589 0.227 0.896l0.765 0.010v0.409c0 0.036 0 0.072 0 0.107 0 0.062 0 0.123 0 0.184v0.37h-0.028l-0.741-0.009c-0.046 0.306-0.129 0.604-0.247 0.89l0.657 0.389-0.557 0.922-0.047-0.028-0.612-0.368c-0.040 0.048-0.080 0.095-0.124 0.142-0.151 0.205-0.319 0.397-0.502 0.574l0.293 0.522 0.042 0.074-0.934 0.523-0.057-0.101-0.191-0.342c-0.675 0.417-1.455 0.631-2.249 0.617l-3.914-0.054 7.56 13.224 5.035 0.027-5.345-9.463c0.247-0.098 0.484-0.207 0.717-0.327 1.267-0.661 2.35-1.626 3.151-2.808 0.131-0.183 0.255-0.368 0.371-0.557 0.802-1.326 1.218-2.849 1.203-4.398 0.014-2.4-0.832-4.444-2.533-6.195-1.701-1.718-3.77-2.584-6.172-2.592l-15.502-0.089z"></path>
<path fill="#25a9e0" style="fill: var(--color2, #25a9e0)" d="M9.819 17.152l3.899 0.025-1.79-3.17-4.347-0.025 2.238 3.17z"></path>
<path fill="#25a9e0" style="fill: var(--color2, #25a9e0)" d="M7.215 21.033l8.718 0.051-1.798-3.17-9.4-0.051z"></path>
<path fill="#25a9e0" style="fill: var(--color2, #25a9e0)" d="M6.272 27.115l13.103 0.077-3.026-5.358-14.749-0.080z"></path>
<path fill="#11304d" style="fill: var(--color1, #11304d)" d="M40.908 20.113c0.96-0.91 2.335-1.39 3.677-1.39 2.765 0 3.792 1.358 3.792 4.353v4.158h-2.483v-0.876h-0.054c-0.414 0.678-1.359 1.075-2.335 1.075-1.308 0-2.997-0.646-2.997-2.581 0-2.382 2.899-2.78 5.3-2.78v-0.132c0-0.811-0.646-1.191-1.491-1.191-0.778 0-1.54 0.38-2.037 0.843l-1.37-1.478zM45.894 23.638h-0.348c-1.192 0-2.534 0.149-2.534 1.126 0 0.628 0.63 0.843 1.176 0.843 1.093 0 1.706-0.662 1.706-1.688v-0.281z"></path>
<path fill="#11304d" style="fill: var(--color1, #11304d)" d="M55.647 27.461c-1.011 0-1.987-0.431-2.501-1.142h-0.033v4.881h-2.718v-12.211h2.586v1.009h0.049c0.314-0.395 0.715-0.711 1.172-0.925s0.957-0.32 1.461-0.309c2.402 0 3.909 2.018 3.909 4.321s-1.441 4.377-3.925 4.377zM55.001 20.974c-1.226 0-1.987 1.076-1.987 2.118 0 1.075 0.761 2.118 1.987 2.118 1.292 0 1.939-1.059 1.939-2.134s-0.646-2.102-1.939-2.102z"></path>
<path fill="#11304d" style="fill: var(--color1, #11304d)" d="M62.668 17.852c-0.292-0.013-0.574-0.111-0.811-0.282s-0.418-0.408-0.521-0.682c-0.103-0.273-0.124-0.571-0.059-0.856s0.212-0.545 0.423-0.747c0.211-0.202 0.477-0.338 0.765-0.39s0.584-0.019 0.853 0.096 0.498 0.306 0.66 0.55c0.161 0.244 0.247 0.53 0.247 0.822 0 0.839-0.696 1.49-1.557 1.49zM61.309 27.234v-8.245h2.718v8.245h-2.718z"></path>
<path fill="#11304d" style="fill: var(--color1, #11304d)" d="M72.422 27.234v-1.075h-0.033c-0.529 0.827-1.606 1.307-2.698 1.307-2.485 0-3.925-2.085-3.925-4.385s1.49-4.321 3.892-4.321c0.475-0.010 0.947 0.085 1.382 0.277s0.822 0.477 1.135 0.834h0.033v-5.153h2.718v12.515h-2.503zM70.335 20.979c-1.291 0-1.953 1.043-1.953 2.099s0.662 2.134 1.953 2.134c1.226 0 1.988-1.043 1.988-2.118 0-1.044-0.762-2.12-1.988-2.12v0.005z"></path>
<path fill="#11304d" style="fill: var(--color1, #11304d)" d="M80.023 21.024v3.143c0 0.762 0.247 1.159 1.026 1.159 0.271 0.002 0.54-0.043 0.796-0.133l0.032 1.986c-0.508 0.164-1.039 0.247-1.573 0.247-2.203 0-2.932-1.175-2.932-2.929v-3.473h-1.324v-2.036h1.308v-2.168h2.667v2.168h1.937v2.036h-1.937z"></path>
<path fill="#11304d" style="fill: var(--color1, #11304d)" d="M91.4 23.854h-5.978c0.082 0.91 0.988 1.555 1.977 1.555 0.865 0 1.457-0.37 1.821-0.864l1.888 1.191c-0.778 1.125-2.070 1.754-3.742 1.754-2.485 0-4.538-1.573-4.538-4.353 0-2.697 1.954-4.418 4.455-4.418 2.434 0 4.14 1.672 4.14 4.485-0.006 0.219-0.006 0.449-0.023 0.649zM88.916 22.165c0-0.864-0.547-1.572-1.623-1.572-1.042 0-1.805 0.728-1.87 1.572h3.494z"></path>
<path fill="#11304d" style="fill: var(--color1, #11304d)" d="M98.786 21.653c-0.298-0.398-0.894-0.662-1.44-0.662-1.143 0-1.906 0.975-1.906 2.117s0.742 2.099 1.938 2.099c0.546 0 1.142-0.215 1.474-0.617l1.506 1.837c-0.678 0.662-1.838 1.059-3.046 1.059-2.594 0-4.621-1.655-4.621-4.386 0-2.68 2.037-4.385 4.603-4.385 1.177 0 2.419 0.447 3.064 1.111l-1.573 1.827z"></path>
<path fill="#11304d" style="fill: var(--color1, #11304d)" d="M106.866 27.234v-4.472c0-0.927-0.231-1.737-1.209-1.737-0.943 0-1.474 0.778-1.474 1.753v4.456h-2.718v-12.515h2.718v5.308h0.034c0.37-0.662 1.226-1.274 2.368-1.274 2.235 0 3.014 1.721 3.014 3.376v5.105h-2.733z"></path>
<path fill="#11304d" style="fill: var(--color1, #11304d)" d="M33.175 17.797h1.49c0.845 0 1.888 0.215 1.888 1.307 0 1.191-1.143 1.422-2.054 1.422h-0.371v2.053l2.54 4.654h3.312l-3.064-5.013c1.507-0.464 2.435-1.589 2.435-3.161 0-2.68-2.236-3.54-4.489-3.54h-4.469v11.715h2.78v-3.333z"></path>
</symbol>

<symbol id="slide-svg" viewBox="0 0 23 32">
<path d="M35.020 7.61l-14.669 0.081 6.735-10.443 16.352-0.081-8.418 10.443z"></path>
<path d="M44.817 20.396l-32.797 0.167 6.763-10.443 35.363-0.167z"></path>
<path d="M48.364 40.432l-49.293 0.252 11.383-17.649 55.485-0.264z"></path>
</symbol>

<!-- <svg id="linkedin" xmlns="http://www.w3.org/2000/svg" width="24" height="24" viewBox="0 0 24 24" fill="none">
<path fill-rule="evenodd" clip-rule="evenodd" d="M5 3H19C20.1046 3 21 3.89543 21 5V19C21 20.1046 20.1046 21 19 21H5C3.89543 21 3 20.1046 3 19V5C3 3.89543 3.89543 3 5 3ZM8 18C8.27614 18 8.5 17.7761 8.5 17.5V10.5C8.5 10.2239 8.27614 10 8 10H6.5C6.22386 10 6 10.2239 6 10.5V17.5C6 17.7761 6.22386 18 6.5 18H8ZM7.25 9C6.42157 9 5.75 8.32843 5.75 7.5C5.75 6.67157 6.42157 6 7.25 6C8.07843 6 8.75 6.67157 8.75 7.5C8.75 8.32843 8.07843 9 7.25 9ZM17.5 18C17.7761 18 18 17.7761 18 17.5V12.9C18.0325 11.3108 16.8576 9.95452 15.28 9.76C14.177 9.65925 13.1083 10.1744 12.5 11.1V10.5C12.5 10.2239 12.2761 10 12 10H10.5C10.2239 10 10 10.2239 10 10.5V17.5C10 17.7761 10.2239 18 10.5 18H12C12.2761 18 12.5 17.7761 12.5 17.5V13.75C12.5 12.9216 13.1716 12.25 14 12.25C14.8284 12.25 15.5 12.9216 15.5 13.75V17.5C15.5 17.7761 15.7239 18 16 18H17.5Z" />
</svg> -->

<!-- <svg id="instagram" xmlns="http://www.w3.org/2000/svg" width="24" height="24" viewBox="0 0 24 24" fill="none">
  <path fill-rule="evenodd" clip-rule="evenodd" d="M16 3H8C5.23858 3 3 5.23858 3 8V16C3 18.7614 5.23858 21 8 21H16C18.7614 21 21 18.7614 21 16V8C21 5.23858 18.7614 3 16 3ZM19.25 16C19.2445 17.7926 17.7926 19.2445 16 19.25H8C6.20735 19.2445 4.75549 17.7926 4.75 16V8C4.75549 6.20735 6.20735 4.75549 8 4.75H16C17.7926 4.75549 19.2445 6.20735 19.25 8V16ZM16.75 8.25C17.3023 8.25 17.75 7.80228 17.75 7.25C17.75 6.69772 17.3023 6.25 16.75 6.25C16.1977 6.25 15.75 6.69772 15.75 7.25C15.75 7.80228 16.1977 8.25 16.75 8.25ZM12 7.5C9.51472 7.5 7.5 9.51472 7.5 12C7.5 14.4853 9.51472 16.5 12 16.5C14.4853 16.5 16.5 14.4853 16.5 12C16.5027 10.8057 16.0294 9.65957 15.1849 8.81508C14.3404 7.97059 13.1943 7.49734 12 7.5ZM9.25 12C9.25 13.5188 10.4812 14.75 12 14.75C13.5188 14.75 14.75 13.5188 14.75 12C14.75 10.4812 13.5188 9.25 12 9.25C10.4812 9.25 9.25 10.4812 9.25 12Z" />
</svg> -->

<symbol id="agency-logo" viewBox="0 0 66 32">
<path fill="#f78d40" style="fill: var(--color1, #f78d40)" d="M0 0h65.811v32h-65.811v-32z"></path>
<path fill="#f0f0f0" style="fill: var(--color2, #f0f0f0)" opacity="0.5" d="M10.544 9.221c0.031 0.003 0.072 0.006 0.123 0.008 0.051 0 0.12 0 0.207 0 0.358 0 0.624-0.090 0.799-0.271 0.178-0.183 0.266-0.438 0.266-0.765 0-0.332-0.086-0.587-0.258-0.765s-0.438-0.266-0.799-0.266c-0.158 0-0.271 0.004-0.338 0.013v2.046zM12.496 8.194c0 0.254-0.039 0.475-0.118 0.664-0.079 0.186-0.192 0.342-0.338 0.469-0.144 0.124-0.318 0.217-0.524 0.279-0.203 0.059-0.428 0.089-0.676 0.089-0.118 0-0.252-0.006-0.402-0.017-0.149-0.008-0.292-0.028-0.427-0.059v-2.844c0.135-0.031 0.279-0.051 0.431-0.059s0.287-0.013 0.406-0.013c0.245 0 0.469 0.030 0.672 0.089 0.203 0.056 0.376 0.147 0.52 0.271 0.147 0.121 0.259 0.276 0.338 0.465 0.079 0.186 0.118 0.409 0.118 0.668zM13.162 9.66v-2.929h1.881v0.452h-1.348v0.723h1.2v0.444h-1.2v0.858h1.45v0.452h-1.982zM16.56 9.66c-0.211-0.456-0.416-0.934-0.613-1.433-0.194-0.499-0.376-0.997-0.545-1.496h0.587c0.068 0.197 0.137 0.399 0.207 0.604s0.141 0.409 0.211 0.609c0.070 0.197 0.141 0.389 0.211 0.575s0.139 0.356 0.207 0.511c0.065-0.155 0.132-0.324 0.203-0.507 0.070-0.186 0.141-0.379 0.211-0.579 0.073-0.2 0.145-0.403 0.216-0.609s0.138-0.407 0.203-0.604h0.571c-0.172 0.499-0.355 0.997-0.549 1.496s-0.397 0.976-0.609 1.433h-0.511zM18.693 9.66v-2.929h1.881v0.452h-1.348v0.723h1.2v0.444h-1.2v0.858h1.45v0.452h-1.982zM23.105 9.2v0.461h-1.851v-2.929h0.533v2.468h1.319zM23.862 8.194c0 0.161 0.020 0.307 0.059 0.44 0.040 0.13 0.096 0.241 0.169 0.334 0.076 0.090 0.168 0.161 0.275 0.211s0.228 0.076 0.363 0.076c0.132 0 0.252-0.025 0.359-0.076s0.197-0.121 0.27-0.211c0.076-0.093 0.134-0.204 0.173-0.334 0.040-0.132 0.059-0.279 0.059-0.44s-0.020-0.306-0.059-0.435c-0.039-0.132-0.097-0.244-0.173-0.334-0.073-0.093-0.163-0.165-0.27-0.216s-0.227-0.076-0.359-0.076c-0.135 0-0.256 0.025-0.363 0.076s-0.199 0.123-0.275 0.216c-0.073 0.093-0.13 0.204-0.169 0.334s-0.059 0.275-0.059 0.435zM26.149 8.194c0 0.251-0.038 0.472-0.114 0.664-0.073 0.192-0.175 0.352-0.304 0.482-0.127 0.127-0.276 0.223-0.448 0.287s-0.355 0.097-0.549 0.097-0.379-0.032-0.554-0.097c-0.172-0.065-0.323-0.161-0.452-0.287-0.127-0.13-0.228-0.29-0.304-0.482s-0.114-0.413-0.114-0.664c0-0.251 0.038-0.471 0.114-0.659 0.076-0.192 0.179-0.352 0.309-0.482 0.132-0.13 0.285-0.227 0.456-0.292s0.354-0.097 0.545-0.097c0.192 0 0.373 0.032 0.545 0.097s0.321 0.162 0.448 0.292c0.13 0.13 0.232 0.29 0.309 0.482 0.076 0.189 0.114 0.409 0.114 0.659zM27.646 6.702c0.425 0 0.751 0.077 0.976 0.232 0.228 0.155 0.342 0.397 0.342 0.727 0 0.172-0.031 0.32-0.093 0.444-0.059 0.121-0.146 0.221-0.262 0.3-0.116 0.076-0.256 0.132-0.423 0.169s-0.356 0.055-0.571 0.055h-0.266v1.031h-0.533v-2.887c0.124-0.028 0.261-0.046 0.41-0.055 0.152-0.011 0.292-0.017 0.418-0.017zM27.684 7.163c-0.135 0-0.247 0.004-0.334 0.013v0.997h0.258c0.256 0 0.454-0.035 0.592-0.106 0.138-0.073 0.207-0.21 0.207-0.41 0-0.096-0.018-0.176-0.055-0.241s-0.087-0.115-0.152-0.152c-0.065-0.037-0.142-0.062-0.232-0.076-0.087-0.017-0.182-0.025-0.283-0.025zM29.535 9.66v-2.929h1.881v0.452h-1.348v0.723h1.2v0.444h-1.2v0.858h1.45v0.452h-1.982zM32.629 9.221c0.031 0.003 0.072 0.006 0.123 0.008 0.051 0 0.12 0 0.207 0 0.358 0 0.624-0.090 0.799-0.271 0.178-0.183 0.266-0.438 0.266-0.765 0-0.332-0.086-0.587-0.258-0.765s-0.438-0.266-0.799-0.266c-0.158 0-0.27 0.004-0.338 0.013v2.046zM34.581 8.194c0 0.254-0.039 0.475-0.118 0.664-0.079 0.186-0.192 0.342-0.338 0.469-0.144 0.124-0.318 0.217-0.524 0.279-0.203 0.059-0.428 0.089-0.676 0.089-0.118 0-0.252-0.006-0.401-0.017-0.149-0.008-0.292-0.028-0.427-0.059v-2.844c0.135-0.031 0.279-0.051 0.431-0.059s0.287-0.013 0.406-0.013c0.245 0 0.469 0.030 0.672 0.089 0.203 0.056 0.376 0.147 0.52 0.271 0.147 0.121 0.259 0.276 0.338 0.465 0.079 0.186 0.118 0.409 0.118 0.668zM37.201 9.694c-0.155 0-0.311-0.006-0.469-0.017-0.158-0.008-0.296-0.028-0.414-0.059v-2.844c0.062-0.011 0.128-0.021 0.199-0.030 0.070-0.011 0.142-0.020 0.216-0.025s0.145-0.010 0.216-0.013c0.073-0.003 0.142-0.004 0.207-0.004 0.178 0 0.342 0.014 0.495 0.042 0.152 0.025 0.283 0.069 0.393 0.131 0.113 0.062 0.2 0.144 0.262 0.245s0.093 0.227 0.093 0.376c0 0.138-0.034 0.256-0.101 0.355-0.065 0.099-0.156 0.178-0.275 0.237 0.178 0.059 0.309 0.147 0.393 0.262s0.127 0.262 0.127 0.44c0 0.301-0.11 0.528-0.33 0.68-0.22 0.149-0.556 0.224-1.010 0.224zM36.842 8.342v0.892c0.059 0.006 0.123 0.010 0.19 0.013s0.13 0.004 0.186 0.004c0.11 0 0.211-0.007 0.304-0.021 0.096-0.014 0.178-0.038 0.245-0.072 0.070-0.037 0.125-0.085 0.165-0.144 0.042-0.059 0.063-0.135 0.063-0.228 0-0.166-0.061-0.282-0.182-0.347s-0.289-0.097-0.503-0.097h-0.469zM36.842 7.923h0.376c0.203 0 0.362-0.028 0.478-0.085 0.115-0.059 0.173-0.163 0.173-0.313 0-0.141-0.061-0.241-0.182-0.3-0.118-0.059-0.273-0.089-0.465-0.089-0.082 0-0.155 0.001-0.22 0.004-0.062 0.003-0.115 0.007-0.161 0.013v0.769zM40.070 8.029c0.127-0.211 0.251-0.425 0.372-0.642s0.231-0.435 0.33-0.655h0.592c-0.158 0.299-0.323 0.596-0.495 0.892-0.169 0.293-0.351 0.589-0.545 0.888v1.15h-0.533v-1.141c-0.194-0.301-0.378-0.6-0.549-0.896s-0.337-0.593-0.495-0.892h0.626c0.099 0.22 0.207 0.438 0.325 0.655s0.242 0.431 0.372 0.642z"></path>
<path fill="#f0f0f0" style="fill: var(--color2, #f0f0f0)" d="M11.019 16.888c0.050 0.366 0.482 0.609 1.011 0.609 0.557 0 0.918-0.237 0.918-0.557 0-0.296-0.237-0.44-0.872-0.566l-0.735-0.137c-1.035-0.188-1.568-0.721-1.568-1.53 0-1.035 0.934-1.702 2.233-1.702 1.405 0 2.234 0.647 2.249 1.649h-1.319c-0.027-0.388-0.405-0.621-0.918-0.621s-0.83 0.214-0.83 0.54c0 0.289 0.249 0.447 0.837 0.562l0.727 0.129c1.11 0.204 1.608 0.68 1.608 1.524 0 1.065-0.923 1.737-2.367 1.737s-2.318-0.6-2.335-1.638h1.359z"></path>
<path fill="#f0f0f0" style="fill: var(--color2, #f0f0f0)" d="M19.175 18.435v-2.148h-2.242v2.148h-1.424v-5.334h1.427v2.092h2.242v-2.092h1.424v5.334h-1.427z"></path>
<path fill="#f0f0f0" style="fill: var(--color2, #f0f0f0)" d="M21.619 18.435l1.884-5.334h1.744l1.893 5.334h-1.52l-0.355-1.171h-1.833l-1.813 1.171zM23.707 16.288h1.28l-0.623-2.055h-0.031l-0.627 2.055z"></path>
<path fill="#f0f0f0" style="fill: var(--color2, #f0f0f0)" d="M28.155 18.435v-5.334h2.433c1.206 0 2.023 0.743 2.023 1.893s-0.859 1.881-2.109 1.881h-0.918l-1.429 1.56zM29.584 15.856h0.623c0.607 0 0.964-0.299 0.964-0.858s-0.357-0.854-0.957-0.854h-0.623l-0.008 1.712z"></path>
<path fill="#f0f0f0" style="fill: var(--color2, #f0f0f0)" d="M39.113 15.769c0 1.7-1.070 2.758-2.771 2.758s-2.774-1.058-2.774-2.758 1.074-2.762 2.774-2.762c1.7 0 2.771 1.061 2.771 2.762zM35.023 15.769c0 1.013 0.518 1.657 1.319 1.657s1.32-0.644 1.32-1.657-0.522-1.657-1.32-1.657c-0.798 0-1.319 0.645-1.319 1.657z"></path>
<path fill="#f0f0f0" style="fill: var(--color2, #f0f0f0)" d="M41.775 14.472l0.711 2.635h0.031l1.079-4.007h1.564l-1.791 5.334h-1.797l-1.79-5.334z"></path>
<path fill="#f0f0f0" style="fill: var(--color2, #f0f0f0)" d="M45.21 18.435l1.887-5.334h1.744l1.887 5.334h-1.513l-0.355-1.171h-1.836l-1.813 1.171zM47.3 16.288h1.28l-0.623-2.055h-0.031l-0.627 2.055z"></path>
<path fill="#f0f0f0" style="fill: var(--color2, #f0f0f0)" d="M53.175 17.341h2.323v1.095h-3.752v-5.334z"></path>
<path fill="#f0f0f0" style="fill: var(--color2, #f0f0f0)" d="M9.7 25.585l1.923-5.435h1.78l1.923 5.435h-1.547l-0.365-1.194h-1.868l-1.846 1.194zM11.828 23.397h1.305l-0.635-2.094h-0.031l-0.639 2.094z"></path>
<path fill="#f0f0f0" style="fill: var(--color2, #f0f0f0)" d="M23.48 22.621v0.667c0 1.484-0.968 2.391-2.597 2.391-1.765 0-2.827-1.035-2.827-2.821 0-1.763 1.062-2.803 2.791-2.803 1.387 0 2.426 0.78 2.573 1.893h-1.439c-0.143-0.482-0.572-0.775-1.131-0.775-0.825 0-1.312 0.613-1.312 1.672s0.539 1.729 1.37 1.729c0.659 0 1.121-0.369 1.158-0.916v-0.083h-1.046z"></path>
<path fill="#f0f0f0" style="fill: var(--color2, #f0f0f0)" d="M30.805 25.585h-3.922v-5.435h3.922v1.116h-2.466v1.082h2.319v1.016h-2.319v1.108h2.466v1.113z"></path>
<path fill="#f0f0f0" style="fill: var(--color2, #f0f0f0)" d="M34.307 25.585v-5.435h1.161l2.428 3.161h0.031v-3.161h1.38v5.435h-1.15l-2.439-3.195h-0.031v3.195h-1.38z"></path>
<path fill="#f0f0f0" style="fill: var(--color2, #f0f0f0)" d="M42.52 22.874c0-1.775 1.072-2.802 2.771-2.802 1.444 0 2.538 0.883 2.582 2.163h-1.396c-0.071-0.638-0.549-1.065-1.186-1.065-0.791 0-1.293 0.642-1.293 1.694s0.498 1.715 1.302 1.715c0.636 0 1.1-0.399 1.191-1.033h1.395c-0.067 1.289-1.121 2.137-2.589 2.137-1.713-0.004-2.776-1.037-2.776-2.809z"></path>
<path fill="#f0f0f0" style="fill: var(--color2, #f0f0f0)" d="M52.235 25.585v-1.867l-1.97-3.568h1.562l1.137 2.26h0.029l1.133-2.26h1.535l-1.97 3.568v1.867h-1.455z"></path>
</symbol>


</defs>
</svg>
